<?xml version="1.0" encoding="UTF-8"?>
<svg id="Capa_1" data-name="Capa 1" xmlns="http://www.w3.org/2000/svg" viewBox="0 0 432 160">
  <defs>
    <style>
      .cls-1, .cls-2 {
        stroke-width: 0px;
      }

      .cls-2 {
        fill: #09c4b1;
      }
    </style>
  </defs>
  <rect class="cls-1" width="432" height="160"/>
  <path class="cls-2" d="m184.16,99.12c-9.44,2.47-21.15-4.06-26.6-13.5-4.28-7.42-4.59-17.43-.61-25.45,2.09-4.21,6.21-8.24,10.85-7.42,3.62.64,6.04,3.92,8.47,6.68,7.64,8.7,18.83,14.18,30.38,14.87-9-6.95-16.46-15.89-21.7-25.98-1.44-2.78-2.78-5.72-5.09-7.84-2.88-2.64-7-3.65-10.89-3.28-3.89.37-7.56,2-10.87,4.08-8.63,5.43-15.12,14.12-18.09,23.88-2.97,9.76-2.45,20.5,1.23,30.02,2.31,5.97,5.95,11.58,11.21,15.23,6,4.16,13.72,5.41,20.95,4.37s14.01-4.24,20.08-8.3c15.25-10.19,26.38-25.71,41.83-35.6,8.07-5.16,18.28-8.69,27.16-5.08,6.64,2.7,11.37,9.18,12.76,16.21,1.39,7.03-.31,14.46-3.85,20.69-1.93,3.39-5.11,6.81-8.99,6.42-1.95-.2-3.67-1.35-5.19-2.58-5.09-4.1-9.09-9.41-14.05-13.68-4.96-4.26-11.46-7.53-17.88-6.29,9.79,6.08,17.71,15.13,22.46,25.63,1.52,3.37,2.9,7.1,5.97,9.15,4.79,3.19,11.27.82,16.13-2.27,12.57-8,22.38-21.16,23.92-35.99,1.54-14.82-6.46-30.82-20.28-36.4-10.2-4.12-22.07-2.3-31.9,2.63-10.12,5.08-16.86,11.52-25.44,20.73-4.86,5.22-11.65,13.37-23.16,23.46-3.82,3.34-5.79,4.83-8.78,5.61Z"/>
</svg>